PathFileType	4	(X/Y/Z)	/Users/itak/Documents/Research/Walk-IL/dataset/trc/00283_00010.trc
DataRate	CameraRate	NumFrames	NumMarkers	Units	OrigDataRate	OrigDataStartFrame	OrigNumFrames
100.000000	100.000000	4	54	mm	100.000000	561	642
Frame#	Time	RPSI			LPSI			L3			STRN			T10			C7			CLAV			RBAK			LBAK			LSHO			LUPA			LAEL			LAOL			LWTS			LWPS			LFRA			LIFD			LHPS			LHTS			RSHO			RUPA			RAEL			RAOL			RWTS			RWPS			RFRA			RIFD			RHTS			RHPS			RBHD			LFHD			RFHD			LBHD			LHIP			RASI			LASI			LKNE			LTHI			LANK			LTIP			LTOE			LMT1			LMT5			LHEE			RKNE			RANK			RTIP			RTOE			RMT1			RMT5			RHEE			RHIP			RTHI			*53			
		X1	Y1	Z1	X2	Y2	Z2	X3	Y3	Z3	X4	Y4	Z4	X5	Y5	Z5	X6	Y6	Z6	X7	Y7	Z7	X8	Y8	Z8	X9	Y9	Z9	X10	Y10	Z10	X11	Y11	Z11	X12	Y12	Z12	X13	Y13	Z13	X14	Y14	Z14	X15	Y15	Z15	X16	Y16	Z16	X17	Y17	Z17	X18	Y18	Z18	X19	Y19	Z19	X20	Y20	Z20	X21	Y21	Z21	X22	Y22	Z22	X23	Y23	Z23	X24	Y24	Z24	X25	Y25	Z25	X26	Y26	Z26	X27	Y27	Z27	X28	Y28	Z28	X29	Y29	Z29	X30	Y30	Z30	X31	Y31	Z31	X32	Y32	Z32	X33	Y33	Z33	X34	Y34	Z34	X35	Y35	Z35	X36	Y36	Z36	X37	Y37	Z37	X38	Y38	Z38	X39	Y39	Z39	X40	Y40	Z40	X41	Y41	Z41	X42	Y42	Z42	X43	Y43	Z43	X44	Y44	Z44	X45	Y45	Z45	X46	Y46	Z46	X47	Y47	Z47	X48	Y48	Z48	X49	Y49	Z49	X50	Y50	Z50	X51	Y51	Z51	X52	Y52	Z52	X53	Y53	Z53	X54	Y54	Z54	

562	5.61	-599.081298828125	1014.762023925781	877.8528442382812	-498.4953002929688	994.8197631835938	736.0315551757812	-535.7740478515625	1077.000854492188	818.3519287109375	-315.8593139648438	1244.4736328125	955.220703125	-546.2877807617188	1193.740600585938	818.5630493164062	-492.1606140136719	1436.716552734375	831.9166870117188	-365.4325256347656	1345.93115234375	919.2607421875	-580.8226928710938	1302.690795898438	871.2127685546875	-452.1696166992188	1400.3369140625	734.6431274414062	-346.4892578125	1400.233032226562	739.7525634765625	-337.7291564941406	1285.87744140625	658.2267456054688	-344.8710632324219	1082.70703125	638.0534057617188	-430.6674194335938	1075.550048828125	654.6822509765625	-330.7550964355469	851.050537109375	705.982177734375	-324.4664611816406	844.9315795898438	634.5054931640625	-339.7962341308594	977.6287841796875	631.0076904296875	-360.5914001464844	666.244384765625	688.3856201171875	-336.6599426269531	757.27392578125	630.5337524414062	-317.4808044433594	749.0532836914062	693.2476806640625	-512.2884521484375	1414.840576171875	1002.737609863281	-551.0025024414062	1359.962768554688	1059.011962890625	-567.1392822265625	1112.585571289062	1164.971801757812	-550.5845336914062	1078.827880859375	1079.58349609375	-386.7120971679688	970.786865234375	1251.10302734375	-458.0623779296875	948.2994384765625	1291.604858398438	-539.567626953125	1064.251342773438	1209.137084960938	-304.62158203125	824.7985229492188	1330.533325195312	-328.8182067871094	897.385009765625	1327.107543945312	-392.1753540039062	872.428466796875	1345.91748046875	-502.3875427246094	1591.503295898438	916.6576538085938	-294.1572265625	1628.1494140625	888.0164184570312	-336.8926086425781	1627.501831054688	970.3104858398438	-434.0047607421875	1583.415649414062	788.892333984375	-388.7889099121094	943.6442260742188	699.1419067382812	-436.7972717285156	960.6097412109375	1032.156616210938	-304.2203369140625	954.4766235351562	818.2711181640625	-284.7214050292969	487.7524108886719	805.6582641601562	-304.1894226074219	625.4229125976562	765.1817626953125	-431.3735046386719	58.48490142822266	746.3007202148438	-352.4620666503906	266.77294921875	767.0631713867188	-300.2228088378906	54.01604080200195	910.2529296875	-377.878662109375	35.31199645996094	903.1524658203125	-325.5677490234375	53.71433258056641	807.8092041015625	-503.7308349609375	49.15353393554688	764.2050170898438	-539.9847412109375	489.0412292480469	988.6461181640625	-561.0980224609375	46.46529388427734	911.3075561523438	-526.2003173828125	367.9577331542969	978.7086791992188	-376.7097778320312	44.52064895629883	1000.278259277344	-395.0916137695312	45.90636444091797	932.0316162109375	-495.8838806152344	38.27099990844727	992.3844604492188	-568.5750122070312	47.60613250732422	839.3048706054688	-575.443603515625	962.6344604492188	1020.043823242188	-530.2362670898438	750.6874389648438	1043.2958984375	nan	nan	nan	
563	5.62	-598.3759155273438	1014.482299804688	878.9163208007812	-498.0923767089844	994.405029296875	736.8414306640625	-535.2816772460938	1076.471069335938	819.1812133789062	-315.1539916992188	1244.079467773438	955.4046630859375	-545.7964477539062	1193.260009765625	819.233154296875	-491.7652893066406	1436.25732421875	832.3408813476562	-364.8855285644531	1345.479125976562	919.44677734375	-580.425048828125	1302.299926757812	871.8067016601562	-451.9043273925781	1399.844604492188	735.03173828125	-346.1937866210938	1399.710327148438	739.9219970703125	-337.28955078125	1284.975952148438	658.8107299804688	-344.48095703125	1081.503662109375	640.3418579101562	-430.4168701171875	1074.657348632812	656.1491088867188	-331.4435424804688	850.4242553710938	710.4762573242188	-323.9177551269531	843.664306640625	639.2141723632812	-339.3547973632812	976.4005737304688	634.4027709960938	-361.249267578125	665.6826171875	695.181884765625	-336.1327209472656	755.8147583007812	636.0791015625	-317.8246459960938	748.4127807617188	699.1522827148438	-511.6100463867188	1414.224731445312	1003.349792480469	-550.0007934570312	1359.090087890625	1059.586181640625	-565.7130737304688	1111.028442382812	1164.27197265625	-550.3281860351562	1077.8935546875	1078.401489257812	-384.3405456542969	967.3941040039062	1246.055541992188	-455.0679931640625	944.9215087890625	1287.697143554688	-537.4058837890625	1062.106323242188	1207.669189453125	-301.6181335449219	820.1381225585938	1322.331420898438	-325.4158020019531	892.912353515625	1320.168823242188	-388.5307922363281	868.086669921875	1339.996948242188	-502.0223999023438	1590.897705078125	917.2261962890625	-294.0299987792969	1628.070556640625	888.0529174804688	-336.5565185546875	1627.305541992188	970.4636840820312	-433.9648132324219	1583.011352539062	789.2522583007812	-388.971923828125	943.1205444335938	699.527099609375	-435.6444702148438	960.248779296875	1032.961791992188	-303.6789245605469	953.9012451171875	818.7067260742188	-287.3941040039062	486.585205078125	804.5761108398438	-305.8616943359375	624.4502563476562	764.6412963867188	-432.2998046875	56.91579437255859	746.7823486328125	-354.5498657226562	265.3269653320312	766.8307495117188	-300.2938842773438	52.44253921508789	910.7874145507812	-378.1700134277344	34.05007553100586	903.9680786132812	-325.978271484375	52.73773574829102	808.0962524414062	-504.4629211425781	47.02882385253906	765.11083984375	-540.5902099609375	488.7781372070312	988.3660888671875	-561.2059936523438	46.33356857299805	911.2673950195312	-526.93017578125	367.872802734375	978.3524780273438	-376.7747192382812	44.54501724243164	1000.196838378906	-395.1434936523438	46.01629638671875	931.806884765625	-495.9086303710938	38.2346305847168	992.3395385742188	-568.705810546875	47.17694091796875	839.3482055664062	-574.4275512695312	962.4049682617188	1021.068359375	-529.9000854492188	750.25	1043.8359375	nan	nan	nan	
564	5.63	-597.6797485351562	1014.212524414062	879.9183349609375	-497.7500305175781	994.0247802734375	737.5377807617188	-534.7734985351562	1075.911743164062	819.9194946289062	-314.4945373535156	1243.687866210938	955.5123291015625	-545.2742309570312	1192.743041992188	819.7933349609375	-491.3717651367188	1435.796508789062	832.615478515625	-364.36669921875	1345.031127929688	919.5352172851562	-580.0262451171875	1301.87939453125	872.25732421875	-451.6293334960938	1399.336547851562	735.2749633789062	-345.91845703125	1399.164184570312	739.9935302734375	-336.8167114257812	1284.0634765625	659.2711181640625	-343.8845825195312	1080.338500976562	642.5513916015625	-429.9713134765625	1073.690307617188	657.398193359375	-332.0396728515625	849.7981567382812	714.6737670898438	-322.9295654296875	842.4799194335938	643.7129516601562	-338.6100158691406	975.2301025390625	637.651611328125	-361.4697265625	665.1253051757812	701.5651245117188	-334.9830932617188	754.4151000976562	641.3245239257812	-317.8959045410156	747.8466186523438	704.7977905273438	-510.9989013671875	1413.610717773438	1003.833190917969	-549.072998046875	1358.184936523438	1060.000366210938	-564.3561401367188	1109.389404296875	1163.276611328125	-550.0806884765625	1076.927490234375	1076.9404296875	-382.294189453125	963.7039794921875	1240.722778320312	-452.4494018554688	941.2782592773438	1283.427734375	-535.3763427734375	1059.808715820312	1205.8876953125	-299.2414245605469	815.0696411132812	1313.7255859375	-322.5338134765625	888.0292358398438	1312.88720703125	-385.4234008789062	863.388916015625	1333.680297851562	-501.6817626953125	1590.302490234375	917.6878662109375	-293.9095153808594	1628.01708984375	887.985595703125	-336.2557067871094	1627.128784179688	970.5239868164062	-433.9493408203125	1582.648315429688	789.4970703125	-389.0114440917969	942.66845703125	699.9471435546875	-434.5592041015625	959.8819580078125	1033.708251953125	-303.1468200683594	953.3062744140625	819.11474609375	-290.1708679199219	485.4327697753906	803.4852294921875	-307.6196594238281	623.471923828125	764.0892944335938	-433.0767822265625	55.41213226318359	746.8732299804688	-356.4821472167969	263.9391479492188	766.4345703125	-300.3954772949219	50.86767578125	911.1782836914062	-378.539794921875	33.0411376953125	904.4564819335938	-326.2949523925781	51.773193359375	808.15380859375	-505.0210876464844	44.96824645996094	765.4972534179688	-541.1964111328125	488.5203857421875	988.0873413085938	-561.2977905273438	46.22634506225586	911.2304077148438	-527.6426391601562	367.7967224121094	977.9840698242188	-376.8497009277344	44.56235122680664	1000.1181640625	-395.1942443847656	46.12510681152344	931.6212158203125	-495.9293823242188	38.20659637451172	992.3021850585938	-568.7992553710938	46.75649261474609	839.3798828125	-573.4513549804688	962.1860961914062	1022.049987792969	-529.6033325195312	749.801025390625	1044.29296875	nan	nan	nan	
565	5.64	-596.9998779296875	1013.984497070312	880.8762817382812	-497.4598999023438	993.724853515625	738.1488647460938	-534.256103515625	1075.362548828125	820.57763671875	-313.880615234375	1243.321655273438	955.5496826171875	-544.7391967773438	1192.21484375	820.2655639648438	-490.983642578125	1435.36474609375	832.761962890625	-363.8751831054688	1344.611083984375	919.5399169921875	-579.61083984375	1301.453491210938	872.5728149414062	-451.3527526855469	1398.8310546875	735.38330078125	-345.660888671875	1398.617431640625	739.9767456054688	-336.3234252929688	1283.171020507812	659.6175537109375	-343.0594482421875	1079.259643554688	644.65283203125	-429.310546875	1072.665893554688	658.4174194335938	-332.5337524414062	849.1868286132812	718.4415283203125	-321.4615173339844	841.4248657226562	647.8984375	-337.5251770019531	974.1611938476562	640.6712646484375	-361.2562255859375	664.5604248046875	707.203857421875	-333.1548156738281	753.1358642578125	646.101806640625	-317.7566528320312	747.3609619140625	710.0090942382812	-510.4542236328125	1413.017944335938	1004.200073242188	-548.2328491210938	1357.262329101562	1060.277465820312	-563.0424194335938	1107.67919921875	1162.002563476562	-549.837890625	1075.948608398438	1075.19775390625	-380.5889282226562	959.7355346679688	1235.123779296875	-450.2131652832031	937.3883056640625	1278.805297851562	-533.4825439453125	1057.376831054688	1203.793579101562	-297.5087585449219	809.6312866210938	1304.73681640625	-320.1916809082031	882.7606811523438	1305.293579101562	-382.8787536621094	858.3547973632812	1326.993774414062	-501.3707885742188	1589.756958007812	918.0401611328125	-293.7952880859375	1628.012573242188	887.8163452148438	-335.9840698242188	1626.997314453125	970.4879150390625	-433.9491882324219	1582.349365234375	789.631591796875	-388.9163818359375	942.3025512695312	700.3989868164062	-433.5359497070312	959.5164794921875	1034.394897460938	-302.6347961425781	952.7127685546875	819.478759765625	-293.004638671875	484.361572265625	802.4080810546875	-309.4549255371094	622.5374145507812	763.5120239257812	-433.6875	53.99633026123047	746.7034912109375	-358.224365234375	262.6455993652344	765.9273681640625	-300.4634399414062	49.33389663696289	911.4528198242188	-378.9120178222656	32.3089599609375	904.68212890625	-326.5077514648438	50.85310745239258	808.0476684570312	-505.3980407714844	43.02647399902344	765.5127563476562	-541.7730712890625	488.2730712890625	987.8076171875	-561.3743896484375	46.14157104492188	911.1980590820312	-528.310791015625	367.7385864257812	977.611328125	-376.9272766113281	44.5832405090332	1000.041687011719	-395.2439575195312	46.21393966674805	931.49267578125	-495.9458923339844	38.18678283691406	992.2737426757812	-568.8493041992188	46.36673355102539	839.4024047851562	-572.521240234375	961.9879760742188	1023.000854492188	-529.3374633789062	749.3577880859375	1044.6884765625	nan	nan	nan	
